<svg width="102" height="150" viewBox="0 0 102 150" fill="none" xmlns="http://www.w3.org/2000/svg">
<path fill-rule="evenodd" clip-rule="evenodd" d="M96.5047 143H96.4858C95.6772 143 94.9682 143.321 94.3777 143.781C94.2639 143.872 94.1216 143.924 94.0196 144.026C93.4529 144.596 93.1257 145.375 93.0545 146.226C93.0474 146.321 93 146.404 93 146.501C93 146.933 93.102 147.337 93.2466 147.717C93.294 147.841 93.3533 147.948 93.4126 148.064C93.5407 148.314 93.6948 148.544 93.8797 148.755C93.9699 148.86 94.0505 148.967 94.1524 149.059C94.4322 149.314 94.7405 149.537 95.0915 149.691H95.0938C95.5278 149.884 96.002 150 96.5047 150C98.0627 150 99.336 148.964 99.789 147.551C99.9099 147.228 99.9929 146.891 99.9953 146.52C99.9953 146.513 100 146.508 100 146.501C100 144.565 98.435 143 96.5047 143M144.802 102.264C144.463 102.121 144.086 102.066 143.699 102.04C143.63 102.038 143.576 102 143.505 102H143.486C141.556 102 140 103.567 140 105.502C140 105.973 140.1 106.417 140.268 106.82C140.387 107.11 140.581 107.343 140.764 107.587C140.839 107.68 140.882 107.794 140.963 107.879C141.544 108.497 142.345 108.877 143.242 108.948C143.246 108.948 143.251 108.95 143.256 108.953V108.95C143.341 108.957 143.417 109 143.505 109C145.435 109 147 107.433 147 105.502C147 104.03 146.087 102.781 144.802 102.264M26.5047 41H26.4858C24.5556 41 23 42.5672 23 44.5C23 46.4305 24.5745 48 26.5047 48C28.4326 48 30 46.4305 30 44.5C30 42.5672 28.4326 41 26.5047 41M26.5047 123H26.4858C24.5556 123 23 124.565 23 126.501C23 128.432 24.5745 130 26.5047 130C28.4326 130 30 128.432 30 126.501C30 124.565 28.4326 123 26.5047 123M50.5047 69C52.435 69 54 67.4305 54 65.5C54 63.5648 52.435 62 50.5047 62H50.4881C48.5556 62 47 63.5648 47 65.5C47 67.4305 48.5745 69 50.5047 69M26.5047 20H26.4858C24.5556 20 23 21.5672 23 23.5C23 25.4328 24.5745 27 26.5047 27C28.4326 27 30 25.4328 30 23.5C30 21.5672 28.4326 20 26.5047 20M26.5047 81H26.4858C24.5556 81 23 82.5672 23 84.5C23 86.4328 24.5745 88 26.5047 88C28.4326 88 30 86.4328 30 84.5C30 82.5672 28.4326 81 26.5047 81M26.5047 102H26.4858C24.5556 102 23 103.567 23 105.502C23 107.433 24.5745 109 26.5047 109C28.4326 109 30 107.433 30 105.502C30 103.567 28.4326 102 26.5047 102M50.5047 27C52.435 27 54 25.4328 54 23.5C54 21.5672 52.435 20 50.5047 20H50.4881C48.5556 20 47 21.5672 47 23.5C47 25.4328 48.5745 27 50.5047 27M50.5047 48C52.435 48 54 46.4305 54 44.5C54 42.5672 52.435 41 50.5047 41H50.4881C48.5556 41 47 42.5672 47 44.5C47 46.4305 48.5745 48 50.5047 48M50.5047 7C52.435 7 54 5.43284 54 3.5C54 1.56716 52.435 0 50.5047 0H50.4881C48.5556 0 47 1.56716 47 3.5C47 5.43284 48.5745 7 50.5047 7M26.5047 62H26.4858C24.5556 62 23 63.5648 23 65.5C23 67.4305 24.5745 69 26.5047 69C28.4326 69 30 67.4305 30 65.5C30 63.5648 28.4326 62 26.5047 62M3.50711 81H3.48577C1.55556 81 0 82.5672 0 84.5C0 86.4328 1.5769 88 3.50711 88C5.43733 88 7 86.4328 7 84.5C7 82.5672 5.43733 81 3.50711 81M3.50711 62H3.48577C1.55556 62 0 63.5648 0 65.5C0 67.4305 1.5769 69 3.50711 69C5.43733 69 7 67.4305 7 65.5C7 63.5648 5.43733 62 3.50711 62M3.50593 102H3.48458C3.04575 102 2.63538 102.1 2.25347 102.252C2.05896 102.325 1.89766 102.444 1.72213 102.551C1.57506 102.643 1.42562 102.727 1.29278 102.843C1.06269 103.031 0.882413 103.249 0.706879 103.491C0.67367 103.541 0.640461 103.586 0.607252 103.641C0.417486 103.935 0.277533 104.244 0.18265 104.591L0.180278 104.593V104.595C0.0996272 104.89 0 105.179 0 105.502C0 106.88 0.818367 108.045 1.97831 108.615V108.618H1.98068C2.44324 108.843 2.94138 108.993 3.48695 108.995C3.49407 108.995 3.49881 109 3.50593 109C5.4368 109 7 107.433 7 105.502C7 105.018 6.90275 104.557 6.72484 104.139C6.19587 102.883 4.9529 102 3.50593 102M120.505 62H120.486C118.556 62 117 63.5648 117 65.5C117 67.4305 118.575 69 120.505 69C122.435 69 124 67.4305 124 65.5C124 63.5648 122.435 62 120.505 62M3.50593 41H3.48458C3.08607 41 2.7184 41.0879 2.37208 41.2256C2.05659 41.3348 1.78143 41.4986 1.51576 41.6886C1.51339 41.6886 1.51339 41.6886 1.51101 41.691V41.691C0.61674 42.325 0 43.3175 0 44.5C0 44.6496 0.0664182 44.7754 0.0853948 44.9227H0.0830227C0.0830227 44.9274 0.0853948 44.9298 0.0877669 44.9322C0.196882 45.7846 0.578787 46.5373 1.18841 47.0834C1.27143 47.1594 1.3758 47.2022 1.46357 47.2687C1.70315 47.4444 1.93324 47.6272 2.21552 47.7388C2.61166 47.9026 3.04338 48 3.50593 48C4.9529 48 6.19587 47.1191 6.72484 45.8606C6.90275 45.4427 7 44.982 7 44.5C7 44.018 6.90275 43.5573 6.72484 43.1394C6.19587 41.8809 4.9529 41 3.50593 41M120.505 81H120.486C118.556 81 117 82.5672 117 84.5C117 86.4328 118.575 88 120.505 88C122.435 88 124 86.4328 124 84.5C124 82.5672 122.435 81 120.505 81M120.505 41H120.486C118.556 41 117 42.5672 117 44.5C117 46.4305 118.575 48 120.505 48C122.435 48 124 46.4305 124 44.5C124 42.5672 122.435 41 120.505 41M120.505 123H120.486C118.556 123 117 124.565 117 126.501C117 128.432 118.575 130 120.505 130C122.435 130 124 128.432 124 126.501C124 124.565 122.435 123 120.505 123M120.505 102H120.486C118.556 102 117 103.567 117 105.502C117 107.433 118.575 109 120.505 109C122.435 109 124 107.433 124 105.502C124 103.567 122.435 102 120.505 102M96.5059 7C98.4355 7 100 5.43284 100 3.5C100 3.5 99.9976 3.49763 99.9976 3.49525C99.9976 2.92775 99.8317 2.41248 99.5899 1.93758C99.5662 1.89247 99.5354 1.85923 99.5093 1.81649C99.2557 1.36771 98.9096 0.994912 98.49 0.695726V0.695726H98.4876C97.9164 0.289688 97.2574 0 96.5059 0H96.487C94.5574 0 93 1.56716 93 3.5C93 5.43284 94.5764 7 96.5059 7M120.505 20H120.486C118.556 20 117 21.5672 117 23.5C117 25.4328 118.575 27 120.505 27C122.435 27 124 25.4328 124 23.5C124 21.5672 122.435 20 120.505 20M96.5047 41H96.4858C94.5556 41 93 42.5672 93 44.5C93 46.4305 94.5745 48 96.5047 48C98.435 48 100 46.4305 100 44.5C100 42.5672 98.435 41 96.5047 41M96.5047 102H96.4858C94.5556 102 93 103.567 93 105.502C93 107.433 94.5745 109 96.5047 109C98.435 109 100 107.433 100 105.502C100 103.567 98.435 102 96.5047 102M96.5047 81H96.4858C94.5556 81 93 82.5672 93 84.5C93 86.4328 94.5745 88 96.5047 88C98.435 88 100 86.4328 100 84.5C100 82.5672 98.435 81 96.5047 81M96.5047 62H96.4858C94.5556 62 93 63.5648 93 65.5C93 67.4305 94.5745 69 96.5047 69C98.435 69 100 67.4305 100 65.5C100 63.5648 98.435 62 96.5047 62M96.5047 123H96.4858C94.5556 123 93 124.565 93 126.501C93 128.432 94.5745 130 96.5047 130C98.435 130 100 128.432 100 126.501C100 124.565 98.435 123 96.5047 123M50.5047 88C52.435 88 54 86.4328 54 84.5C54 82.5672 52.435 81 50.5047 81H50.4881C48.5556 81 47 82.5672 47 84.5C47 86.4328 48.5745 88 50.5047 88M52.9756 144.026C52.8713 143.922 52.729 143.869 52.6128 143.781C52.0224 143.321 51.3133 143 50.5047 143H50.4858C48.5556 143 47 144.565 47 146.501C47 147.451 47.3865 148.306 48.003 148.938C48.0054 148.941 48.0054 148.943 48.0078 148.943C48.6433 149.594 49.5254 150 50.5047 150C50.6897 150 50.8486 149.924 51.0264 149.895V149.895C51.0288 149.895 51.0312 149.893 51.0335 149.893C51.8587 149.765 52.5796 149.385 53.1037 148.784C53.189 148.691 53.2388 148.577 53.3123 148.475C53.4712 148.249 53.6396 148.036 53.7439 147.777C53.9004 147.39 53.9929 146.967 53.9953 146.515C53.9953 146.511 54 146.508 54 146.501C54 145.613 53.6419 144.824 53.0989 144.207C53.0491 144.15 53.0278 144.076 52.9756 144.026M142.142 47.7247C142.562 47.9027 143.022 48 143.506 48C144.016 48 144.493 47.8789 144.929 47.6819C144.943 47.6748 144.953 47.6629 144.967 47.6558C145.394 47.4564 145.762 47.1763 146.073 46.8298C146.637 46.2102 147 45.4032 147 44.5012C147 42.569 145.434 41 143.506 41H143.487C141.556 41 140 42.569 140 44.5012C140 45.9491 140.885 47.1929 142.142 47.7247M143.506 69C145.434 69 147 67.4305 147 65.5C147 63.5648 145.434 62 143.506 62H143.487C141.556 62 140 63.5648 140 65.5C140 67.4305 141.573 69 143.506 69M143.506 88C145.434 88 147 86.4328 147 84.5C147 82.5672 145.434 81 143.506 81H143.487C141.556 81 140 82.5672 140 84.5C140 86.4328 141.573 88 143.506 88M73.5047 41H73.4881C71.5579 41 70 42.5672 70 44.5C70 46.4305 71.5745 48 73.5047 48C75.435 48 77 46.4305 77 44.5C77 42.5672 75.435 41 73.5047 41M73.5047 20H73.4881C71.5579 20 70 21.5672 70 23.5C70 25.4328 71.5745 27 73.5047 27C75.435 27 77 25.4328 77 23.5C77 21.5672 75.435 20 73.5047 20M73.5047 0H73.4881C71.5579 0 70 1.56716 70 3.5C70 5.43284 71.5745 7 73.5047 7C75.435 7 77 5.43284 77 3.5C77 1.56716 75.435 0 73.5047 0M50.5047 130C52.435 130 54 128.432 54 126.501C54 124.565 52.435 123 50.5047 123H50.4881C48.5556 123 47 124.565 47 126.501C47 128.432 48.5745 130 50.5047 130M50.5047 109C52.435 109 54 107.433 54 105.502C54 103.567 52.435 102 50.5047 102H50.4881C48.5556 102 47 103.567 47 105.502C47 107.433 48.5745 109 50.5047 109M73.5047 62H73.4881C71.5579 62 70 63.5648 70 65.5C70 67.4305 71.5745 69 73.5047 69C75.435 69 77 67.4305 77 65.5C77 63.5648 75.435 62 73.5047 62M96.5047 20H96.4858C94.5556 20 93 21.5672 93 23.5C93 25.4328 94.5745 27 96.5047 27C98.435 27 100 25.4328 100 23.5C100 21.5672 98.435 20 96.5047 20M73.5047 123H73.4881C71.5579 123 70 124.565 70 126.501C70 128.432 71.5745 130 73.5047 130C75.435 130 77 128.432 77 126.501C77 124.565 75.435 123 73.5047 123M73.5047 143H73.4881C71.5579 143 70 144.568 70 146.501C70 148.435 71.5745 150 73.5047 150C75.435 150 77 148.435 77 146.501C77 144.568 75.435 143 73.5047 143M73.5047 102H73.4881C71.5579 102 70 103.567 70 105.502C70 107.433 71.5745 109 73.5047 109C75.435 109 77 107.433 77 105.502C77 103.567 75.435 102 73.5047 102M73.5047 81H73.4881C71.5579 81 70 82.5672 70 84.5C70 86.4328 71.5745 88 73.5047 88C75.435 88 77 86.4328 77 84.5C77 82.5672 75.435 81 73.5047 81" fill="#68D585"/>
</svg>
