<svg width="41" height="40" viewBox="0 0 41 40" fill="none" xmlns="http://www.w3.org/2000/svg">
<path d="M2.0293 39.0058V1.00586H14.895C17.5007 1.00586 19.7807 1.40395 21.735 2.20014C23.6893 2.99633 25.2093 4.20871 26.295 5.83728C27.3807 7.42966 27.9235 9.42013 27.9235 11.8087C27.9235 13.2925 27.5435 14.6677 26.7835 15.9344C26.0597 17.1649 25.0283 18.2325 23.6893 19.1373C25.4626 20.042 26.8197 21.2544 27.7607 22.7744C28.7378 24.2582 29.2264 26.0496 29.2264 28.1487C29.2264 30.4649 28.7016 32.4372 27.6521 34.0658C26.6026 35.6944 25.1369 36.9249 23.255 37.7572C21.3731 38.5896 19.1655 39.0058 16.6321 39.0058H2.0293ZM9.30357 32.4372H15.9264C17.6998 32.4372 19.0931 32.003 20.1064 31.1344C21.1197 30.2296 21.6264 29.0353 21.6264 27.5515C21.6264 25.9954 21.0655 24.783 19.9436 23.9144C18.8217 23.0096 17.2836 22.5573 15.3293 22.5573H9.30357V32.4372ZM9.30357 16.4773H15.0578C16.6864 16.4773 17.9712 16.0611 18.9121 15.2287C19.8531 14.3963 20.3236 13.2201 20.3236 11.7001C20.3236 10.1801 19.7988 9.00395 18.7493 8.17157C17.6998 7.33919 16.2702 6.923 14.4607 6.923H9.30357V16.4773Z" fill="white"/>
<path d="M35.5089 39.0056C34.3146 39.0056 33.2832 38.5713 32.4146 37.7028C31.5822 36.8342 31.166 35.8028 31.166 34.6085C31.166 33.4504 31.5822 32.4371 32.4146 31.5685C33.2832 30.6999 34.3146 30.2656 35.5089 30.2656C36.7032 30.2656 37.7165 30.6999 38.5489 31.5685C39.4174 32.4371 39.8517 33.4504 39.8517 34.6085C39.8517 35.8028 39.4174 36.8342 38.5489 37.7028C37.7165 38.5713 36.7032 39.0056 35.5089 39.0056Z" fill="white"/>
</svg>
